<mxfile host="app.diagrams.net" agent="Mozilla/5.0 (Windows NT 10.0; Win64; x64) AppleWebKit/537.36 (KHTML, like Gecko) Chrome/141.0.0.0 Safari/537.36" version="28.2.7">
  <diagram name="Page-1" id="uGcQFHAI4GSlOA4Aewoo">
    <mxGraphModel dx="1188" dy="648" grid="1" gridSize="10" guides="1" tooltips="1" connect="1" arrows="1" fold="1" page="1" pageScale="1" pageWidth="850" pageHeight="1100" math="0" shadow="0">
      <root>
        <mxCell id="0" />
        <mxCell id="1" parent="0" />
        <mxCell id="Pfon82NVZABm7Eqx-mhg-110" value="" style="shape=internalStorage;whiteSpace=wrap;html=1;backgroundOutline=1;" vertex="1" parent="1">
          <mxGeometry x="130" y="160" width="160" height="160" as="geometry" />
        </mxCell>
        <mxCell id="Pfon82NVZABm7Eqx-mhg-111" value="USER" style="text;html=1;whiteSpace=wrap;strokeColor=none;fillColor=none;align=center;verticalAlign=middle;rounded=0;" vertex="1" parent="1">
          <mxGeometry x="185" y="160" width="50" height="20" as="geometry" />
        </mxCell>
        <mxCell id="Pfon82NVZABm7Eqx-mhg-113" value="&lt;span style=&quot;font-size: 10px;&quot;&gt;id&lt;/span&gt;" style="text;html=1;whiteSpace=wrap;strokeColor=none;fillColor=none;align=left;verticalAlign=middle;rounded=0;" vertex="1" parent="1">
          <mxGeometry x="160" y="180" width="130" height="20" as="geometry" />
        </mxCell>
        <mxCell id="Pfon82NVZABm7Eqx-mhg-114" value="&lt;span style=&quot;font-size: 10px;&quot;&gt;username&lt;/span&gt;" style="text;html=1;whiteSpace=wrap;strokeColor=none;fillColor=none;align=left;verticalAlign=middle;rounded=0;" vertex="1" parent="1">
          <mxGeometry x="160" y="200" width="130" height="20" as="geometry" />
        </mxCell>
        <mxCell id="Pfon82NVZABm7Eqx-mhg-115" value="&lt;span style=&quot;font-size: 10px;&quot;&gt;password&lt;/span&gt;" style="text;html=1;whiteSpace=wrap;strokeColor=none;fillColor=none;align=left;verticalAlign=middle;rounded=0;" vertex="1" parent="1">
          <mxGeometry x="160" y="220" width="130" height="20" as="geometry" />
        </mxCell>
        <mxCell id="Pfon82NVZABm7Eqx-mhg-116" value="&lt;span style=&quot;font-size: 10px;&quot;&gt;email&lt;/span&gt;" style="text;html=1;whiteSpace=wrap;strokeColor=none;fillColor=none;align=left;verticalAlign=middle;rounded=0;" vertex="1" parent="1">
          <mxGeometry x="160" y="240" width="130" height="20" as="geometry" />
        </mxCell>
        <mxCell id="Pfon82NVZABm7Eqx-mhg-117" value="" style="endArrow=none;html=1;rounded=0;exitX=0;exitY=0.25;exitDx=0;exitDy=0;entryX=1;entryY=0;entryDx=0;entryDy=0;" edge="1" parent="1" source="Pfon82NVZABm7Eqx-mhg-110" target="Pfon82NVZABm7Eqx-mhg-114">
          <mxGeometry width="50" height="50" relative="1" as="geometry">
            <mxPoint x="220" y="250" as="sourcePoint" />
            <mxPoint x="270" y="200" as="targetPoint" />
          </mxGeometry>
        </mxCell>
        <mxCell id="Pfon82NVZABm7Eqx-mhg-118" value="" style="endArrow=none;html=1;rounded=0;exitX=0;exitY=0.25;exitDx=0;exitDy=0;entryX=1;entryY=0;entryDx=0;entryDy=0;" edge="1" parent="1">
          <mxGeometry width="50" height="50" relative="1" as="geometry">
            <mxPoint x="130" y="220" as="sourcePoint" />
            <mxPoint x="290" y="220" as="targetPoint" />
          </mxGeometry>
        </mxCell>
        <mxCell id="Pfon82NVZABm7Eqx-mhg-119" value="" style="endArrow=none;html=1;rounded=0;exitX=0;exitY=0.25;exitDx=0;exitDy=0;entryX=1;entryY=0;entryDx=0;entryDy=0;" edge="1" parent="1">
          <mxGeometry width="50" height="50" relative="1" as="geometry">
            <mxPoint x="130" y="240" as="sourcePoint" />
            <mxPoint x="290" y="240" as="targetPoint" />
          </mxGeometry>
        </mxCell>
        <mxCell id="Pfon82NVZABm7Eqx-mhg-120" value="&lt;span style=&quot;font-size: 10px;&quot;&gt;PK&lt;/span&gt;" style="text;html=1;whiteSpace=wrap;strokeColor=none;fillColor=none;align=left;verticalAlign=middle;rounded=0;" vertex="1" parent="1">
          <mxGeometry x="130" y="180" width="20" height="20" as="geometry" />
        </mxCell>
        <mxCell id="Pfon82NVZABm7Eqx-mhg-121" value="" style="shape=internalStorage;whiteSpace=wrap;html=1;backgroundOutline=1;" vertex="1" parent="1">
          <mxGeometry x="420" y="160" width="160" height="160" as="geometry" />
        </mxCell>
        <mxCell id="Pfon82NVZABm7Eqx-mhg-122" value="GRAPH" style="text;html=1;whiteSpace=wrap;strokeColor=none;fillColor=none;align=center;verticalAlign=middle;rounded=0;" vertex="1" parent="1">
          <mxGeometry x="475" y="160" width="50" height="20" as="geometry" />
        </mxCell>
        <mxCell id="Pfon82NVZABm7Eqx-mhg-123" value="&lt;span style=&quot;font-size: 10px;&quot;&gt;id&lt;/span&gt;" style="text;html=1;whiteSpace=wrap;strokeColor=none;fillColor=none;align=left;verticalAlign=middle;rounded=0;" vertex="1" parent="1">
          <mxGeometry x="450" y="180" width="130" height="20" as="geometry" />
        </mxCell>
        <mxCell id="Pfon82NVZABm7Eqx-mhg-124" value="&lt;span style=&quot;font-size: 10px;&quot;&gt;user_id&lt;/span&gt;" style="text;html=1;whiteSpace=wrap;strokeColor=none;fillColor=none;align=left;verticalAlign=middle;rounded=0;" vertex="1" parent="1">
          <mxGeometry x="450" y="200" width="130" height="20" as="geometry" />
        </mxCell>
        <mxCell id="Pfon82NVZABm7Eqx-mhg-125" value="&lt;span style=&quot;font-size: 10px;&quot;&gt;type&lt;/span&gt;" style="text;html=1;whiteSpace=wrap;strokeColor=none;fillColor=none;align=left;verticalAlign=middle;rounded=0;" vertex="1" parent="1">
          <mxGeometry x="450" y="220" width="130" height="20" as="geometry" />
        </mxCell>
        <mxCell id="Pfon82NVZABm7Eqx-mhg-127" value="" style="endArrow=none;html=1;rounded=0;exitX=0;exitY=0.25;exitDx=0;exitDy=0;entryX=1;entryY=0;entryDx=0;entryDy=0;" edge="1" parent="1" source="Pfon82NVZABm7Eqx-mhg-121" target="Pfon82NVZABm7Eqx-mhg-124">
          <mxGeometry width="50" height="50" relative="1" as="geometry">
            <mxPoint x="510" y="250" as="sourcePoint" />
            <mxPoint x="560" y="200" as="targetPoint" />
          </mxGeometry>
        </mxCell>
        <mxCell id="Pfon82NVZABm7Eqx-mhg-128" value="" style="endArrow=none;html=1;rounded=0;exitX=0;exitY=0.25;exitDx=0;exitDy=0;entryX=1;entryY=0;entryDx=0;entryDy=0;" edge="1" parent="1">
          <mxGeometry width="50" height="50" relative="1" as="geometry">
            <mxPoint x="420" y="220" as="sourcePoint" />
            <mxPoint x="580" y="220" as="targetPoint" />
          </mxGeometry>
        </mxCell>
        <mxCell id="Pfon82NVZABm7Eqx-mhg-129" value="" style="endArrow=none;html=1;rounded=0;exitX=0;exitY=0.25;exitDx=0;exitDy=0;entryX=1;entryY=0;entryDx=0;entryDy=0;" edge="1" parent="1">
          <mxGeometry width="50" height="50" relative="1" as="geometry">
            <mxPoint x="420" y="240" as="sourcePoint" />
            <mxPoint x="580" y="240" as="targetPoint" />
          </mxGeometry>
        </mxCell>
        <mxCell id="Pfon82NVZABm7Eqx-mhg-130" value="&lt;span style=&quot;font-size: 10px;&quot;&gt;PK&lt;/span&gt;" style="text;html=1;whiteSpace=wrap;strokeColor=none;fillColor=none;align=left;verticalAlign=middle;rounded=0;" vertex="1" parent="1">
          <mxGeometry x="420" y="180" width="20" height="20" as="geometry" />
        </mxCell>
        <mxCell id="Pfon82NVZABm7Eqx-mhg-131" value="&lt;span style=&quot;font-size: 10px;&quot;&gt;FK&lt;/span&gt;" style="text;html=1;whiteSpace=wrap;strokeColor=none;fillColor=none;align=left;verticalAlign=middle;rounded=0;" vertex="1" parent="1">
          <mxGeometry x="420" y="200" width="20" height="20" as="geometry" />
        </mxCell>
        <mxCell id="Pfon82NVZABm7Eqx-mhg-132" value="" style="endArrow=none;html=1;rounded=0;exitX=0;exitY=0.25;exitDx=0;exitDy=0;entryX=1;entryY=0;entryDx=0;entryDy=0;" edge="1" parent="1">
          <mxGeometry width="50" height="50" relative="1" as="geometry">
            <mxPoint x="130" y="260" as="sourcePoint" />
            <mxPoint x="290" y="260" as="targetPoint" />
          </mxGeometry>
        </mxCell>
        <mxCell id="Pfon82NVZABm7Eqx-mhg-133" value="" style="shape=internalStorage;whiteSpace=wrap;html=1;backgroundOutline=1;" vertex="1" parent="1">
          <mxGeometry x="770" y="40" width="160" height="160" as="geometry" />
        </mxCell>
        <mxCell id="Pfon82NVZABm7Eqx-mhg-134" value="NODE" style="text;html=1;whiteSpace=wrap;strokeColor=none;fillColor=none;align=center;verticalAlign=middle;rounded=0;" vertex="1" parent="1">
          <mxGeometry x="825" y="40" width="50" height="20" as="geometry" />
        </mxCell>
        <mxCell id="Pfon82NVZABm7Eqx-mhg-135" value="&lt;span style=&quot;font-size: 10px;&quot;&gt;id&lt;/span&gt;" style="text;html=1;whiteSpace=wrap;strokeColor=none;fillColor=none;align=left;verticalAlign=middle;rounded=0;" vertex="1" parent="1">
          <mxGeometry x="800" y="60" width="130" height="20" as="geometry" />
        </mxCell>
        <mxCell id="Pfon82NVZABm7Eqx-mhg-136" value="&lt;span style=&quot;font-size: 10px;&quot;&gt;graph_id&lt;/span&gt;" style="text;html=1;whiteSpace=wrap;strokeColor=none;fillColor=none;align=left;verticalAlign=middle;rounded=0;" vertex="1" parent="1">
          <mxGeometry x="800" y="80" width="130" height="20" as="geometry" />
        </mxCell>
        <mxCell id="Pfon82NVZABm7Eqx-mhg-137" value="&lt;span style=&quot;font-size: 10px;&quot;&gt;label&lt;/span&gt;" style="text;html=1;whiteSpace=wrap;strokeColor=none;fillColor=none;align=left;verticalAlign=middle;rounded=0;" vertex="1" parent="1">
          <mxGeometry x="800" y="100" width="130" height="20" as="geometry" />
        </mxCell>
        <mxCell id="Pfon82NVZABm7Eqx-mhg-138" value="&lt;span style=&quot;font-size: 10px;&quot;&gt;position_x&lt;/span&gt;" style="text;html=1;whiteSpace=wrap;strokeColor=none;fillColor=none;align=left;verticalAlign=middle;rounded=0;" vertex="1" parent="1">
          <mxGeometry x="800" y="120" width="130" height="20" as="geometry" />
        </mxCell>
        <mxCell id="Pfon82NVZABm7Eqx-mhg-139" value="" style="endArrow=none;html=1;rounded=0;exitX=0;exitY=0.25;exitDx=0;exitDy=0;entryX=1;entryY=0;entryDx=0;entryDy=0;" edge="1" parent="1" source="Pfon82NVZABm7Eqx-mhg-133" target="Pfon82NVZABm7Eqx-mhg-136">
          <mxGeometry width="50" height="50" relative="1" as="geometry">
            <mxPoint x="860" y="130" as="sourcePoint" />
            <mxPoint x="910" y="80" as="targetPoint" />
          </mxGeometry>
        </mxCell>
        <mxCell id="Pfon82NVZABm7Eqx-mhg-140" value="" style="endArrow=none;html=1;rounded=0;exitX=0;exitY=0.25;exitDx=0;exitDy=0;entryX=1;entryY=0;entryDx=0;entryDy=0;" edge="1" parent="1">
          <mxGeometry width="50" height="50" relative="1" as="geometry">
            <mxPoint x="770" y="100" as="sourcePoint" />
            <mxPoint x="930" y="100" as="targetPoint" />
          </mxGeometry>
        </mxCell>
        <mxCell id="Pfon82NVZABm7Eqx-mhg-141" value="" style="endArrow=none;html=1;rounded=0;exitX=0;exitY=0.25;exitDx=0;exitDy=0;entryX=1;entryY=0;entryDx=0;entryDy=0;" edge="1" parent="1">
          <mxGeometry width="50" height="50" relative="1" as="geometry">
            <mxPoint x="770" y="120" as="sourcePoint" />
            <mxPoint x="930" y="120" as="targetPoint" />
          </mxGeometry>
        </mxCell>
        <mxCell id="Pfon82NVZABm7Eqx-mhg-142" value="&lt;span style=&quot;font-size: 10px;&quot;&gt;PK&lt;/span&gt;" style="text;html=1;whiteSpace=wrap;strokeColor=none;fillColor=none;align=left;verticalAlign=middle;rounded=0;" vertex="1" parent="1">
          <mxGeometry x="770" y="60" width="20" height="20" as="geometry" />
        </mxCell>
        <mxCell id="Pfon82NVZABm7Eqx-mhg-143" value="" style="endArrow=none;html=1;rounded=0;exitX=0;exitY=0.25;exitDx=0;exitDy=0;entryX=1;entryY=0;entryDx=0;entryDy=0;" edge="1" parent="1">
          <mxGeometry width="50" height="50" relative="1" as="geometry">
            <mxPoint x="770" y="140" as="sourcePoint" />
            <mxPoint x="930" y="140" as="targetPoint" />
          </mxGeometry>
        </mxCell>
        <mxCell id="Pfon82NVZABm7Eqx-mhg-144" value="&lt;span style=&quot;font-size: 10px;&quot;&gt;FK&lt;/span&gt;" style="text;html=1;whiteSpace=wrap;strokeColor=none;fillColor=none;align=left;verticalAlign=middle;rounded=0;" vertex="1" parent="1">
          <mxGeometry x="770" y="80" width="20" height="20" as="geometry" />
        </mxCell>
        <mxCell id="Pfon82NVZABm7Eqx-mhg-145" value="&lt;span style=&quot;font-size: 10px;&quot;&gt;position_y&lt;/span&gt;" style="text;html=1;whiteSpace=wrap;strokeColor=none;fillColor=none;align=left;verticalAlign=middle;rounded=0;" vertex="1" parent="1">
          <mxGeometry x="800" y="140" width="130" height="20" as="geometry" />
        </mxCell>
        <mxCell id="Pfon82NVZABm7Eqx-mhg-146" value="" style="endArrow=none;html=1;rounded=0;exitX=0;exitY=0.25;exitDx=0;exitDy=0;entryX=1;entryY=0;entryDx=0;entryDy=0;" edge="1" parent="1">
          <mxGeometry width="50" height="50" relative="1" as="geometry">
            <mxPoint x="770" y="160" as="sourcePoint" />
            <mxPoint x="930" y="160" as="targetPoint" />
          </mxGeometry>
        </mxCell>
        <mxCell id="Pfon82NVZABm7Eqx-mhg-147" value="" style="shape=internalStorage;whiteSpace=wrap;html=1;backgroundOutline=1;" vertex="1" parent="1">
          <mxGeometry x="770" y="300" width="160" height="160" as="geometry" />
        </mxCell>
        <mxCell id="Pfon82NVZABm7Eqx-mhg-148" value="EDGE" style="text;html=1;whiteSpace=wrap;strokeColor=none;fillColor=none;align=center;verticalAlign=middle;rounded=0;" vertex="1" parent="1">
          <mxGeometry x="825" y="300" width="50" height="20" as="geometry" />
        </mxCell>
        <mxCell id="Pfon82NVZABm7Eqx-mhg-149" value="&lt;span style=&quot;font-size: 10px;&quot;&gt;id&lt;/span&gt;" style="text;html=1;whiteSpace=wrap;strokeColor=none;fillColor=none;align=left;verticalAlign=middle;rounded=0;" vertex="1" parent="1">
          <mxGeometry x="800" y="320" width="130" height="20" as="geometry" />
        </mxCell>
        <mxCell id="Pfon82NVZABm7Eqx-mhg-150" value="&lt;span style=&quot;font-size: 10px;&quot;&gt;graph_id&lt;/span&gt;" style="text;html=1;whiteSpace=wrap;strokeColor=none;fillColor=none;align=left;verticalAlign=middle;rounded=0;" vertex="1" parent="1">
          <mxGeometry x="800" y="340" width="130" height="20" as="geometry" />
        </mxCell>
        <mxCell id="Pfon82NVZABm7Eqx-mhg-151" value="&lt;span style=&quot;font-size: 10px;&quot;&gt;source_node_id&lt;/span&gt;" style="text;html=1;whiteSpace=wrap;strokeColor=none;fillColor=none;align=left;verticalAlign=middle;rounded=0;" vertex="1" parent="1">
          <mxGeometry x="800" y="360" width="130" height="20" as="geometry" />
        </mxCell>
        <mxCell id="Pfon82NVZABm7Eqx-mhg-152" value="&lt;span style=&quot;font-size: 10px;&quot;&gt;target_node_id&lt;/span&gt;" style="text;html=1;whiteSpace=wrap;strokeColor=none;fillColor=none;align=left;verticalAlign=middle;rounded=0;" vertex="1" parent="1">
          <mxGeometry x="800" y="380" width="130" height="20" as="geometry" />
        </mxCell>
        <mxCell id="Pfon82NVZABm7Eqx-mhg-153" value="" style="endArrow=none;html=1;rounded=0;exitX=0;exitY=0.25;exitDx=0;exitDy=0;entryX=1;entryY=0;entryDx=0;entryDy=0;" edge="1" parent="1" source="Pfon82NVZABm7Eqx-mhg-147" target="Pfon82NVZABm7Eqx-mhg-150">
          <mxGeometry width="50" height="50" relative="1" as="geometry">
            <mxPoint x="860" y="390" as="sourcePoint" />
            <mxPoint x="910" y="340" as="targetPoint" />
          </mxGeometry>
        </mxCell>
        <mxCell id="Pfon82NVZABm7Eqx-mhg-154" value="" style="endArrow=none;html=1;rounded=0;exitX=0;exitY=0.25;exitDx=0;exitDy=0;entryX=1;entryY=0;entryDx=0;entryDy=0;" edge="1" parent="1">
          <mxGeometry width="50" height="50" relative="1" as="geometry">
            <mxPoint x="770" y="360" as="sourcePoint" />
            <mxPoint x="930" y="360" as="targetPoint" />
          </mxGeometry>
        </mxCell>
        <mxCell id="Pfon82NVZABm7Eqx-mhg-155" value="" style="endArrow=none;html=1;rounded=0;exitX=0;exitY=0.25;exitDx=0;exitDy=0;entryX=1;entryY=0;entryDx=0;entryDy=0;" edge="1" parent="1">
          <mxGeometry width="50" height="50" relative="1" as="geometry">
            <mxPoint x="770" y="380" as="sourcePoint" />
            <mxPoint x="930" y="380" as="targetPoint" />
          </mxGeometry>
        </mxCell>
        <mxCell id="Pfon82NVZABm7Eqx-mhg-156" value="&lt;span style=&quot;font-size: 10px;&quot;&gt;PK&lt;/span&gt;" style="text;html=1;whiteSpace=wrap;strokeColor=none;fillColor=none;align=left;verticalAlign=middle;rounded=0;" vertex="1" parent="1">
          <mxGeometry x="770" y="320" width="20" height="20" as="geometry" />
        </mxCell>
        <mxCell id="Pfon82NVZABm7Eqx-mhg-157" value="" style="endArrow=none;html=1;rounded=0;exitX=0;exitY=0.25;exitDx=0;exitDy=0;entryX=1;entryY=0;entryDx=0;entryDy=0;" edge="1" parent="1">
          <mxGeometry width="50" height="50" relative="1" as="geometry">
            <mxPoint x="770" y="400" as="sourcePoint" />
            <mxPoint x="930" y="400" as="targetPoint" />
          </mxGeometry>
        </mxCell>
        <mxCell id="Pfon82NVZABm7Eqx-mhg-158" value="&lt;span style=&quot;font-size: 10px;&quot;&gt;FK&lt;/span&gt;" style="text;html=1;whiteSpace=wrap;strokeColor=none;fillColor=none;align=left;verticalAlign=middle;rounded=0;" vertex="1" parent="1">
          <mxGeometry x="770" y="340" width="20" height="20" as="geometry" />
        </mxCell>
        <mxCell id="Pfon82NVZABm7Eqx-mhg-159" value="&lt;span style=&quot;font-size: 10px;&quot;&gt;weight&lt;/span&gt;" style="text;html=1;whiteSpace=wrap;strokeColor=none;fillColor=none;align=left;verticalAlign=middle;rounded=0;" vertex="1" parent="1">
          <mxGeometry x="800" y="400" width="130" height="20" as="geometry" />
        </mxCell>
        <mxCell id="Pfon82NVZABm7Eqx-mhg-160" value="" style="endArrow=none;html=1;rounded=0;exitX=0;exitY=0.25;exitDx=0;exitDy=0;entryX=1;entryY=0;entryDx=0;entryDy=0;" edge="1" parent="1">
          <mxGeometry width="50" height="50" relative="1" as="geometry">
            <mxPoint x="770" y="420" as="sourcePoint" />
            <mxPoint x="930" y="420" as="targetPoint" />
          </mxGeometry>
        </mxCell>
        <mxCell id="Pfon82NVZABm7Eqx-mhg-162" value="&lt;span style=&quot;font-size: 10px;&quot;&gt;FK&lt;/span&gt;" style="text;html=1;whiteSpace=wrap;strokeColor=none;fillColor=none;align=left;verticalAlign=middle;rounded=0;" vertex="1" parent="1">
          <mxGeometry x="770" y="360" width="20" height="20" as="geometry" />
        </mxCell>
        <mxCell id="Pfon82NVZABm7Eqx-mhg-163" value="&lt;span style=&quot;font-size: 10px;&quot;&gt;FK&lt;/span&gt;" style="text;html=1;whiteSpace=wrap;strokeColor=none;fillColor=none;align=left;verticalAlign=middle;rounded=0;" vertex="1" parent="1">
          <mxGeometry x="770" y="380" width="20" height="20" as="geometry" />
        </mxCell>
        <mxCell id="Pfon82NVZABm7Eqx-mhg-164" value="&lt;span style=&quot;font-size: 10px;&quot;&gt;O&lt;/span&gt;" style="text;html=1;whiteSpace=wrap;strokeColor=none;fillColor=none;align=left;verticalAlign=middle;rounded=0;" vertex="1" parent="1">
          <mxGeometry x="770" y="400" width="20" height="20" as="geometry" />
        </mxCell>
        <mxCell id="Pfon82NVZABm7Eqx-mhg-165" value="" style="endArrow=none;html=1;rounded=0;exitX=1;exitY=0;exitDx=0;exitDy=0;" edge="1" parent="1" source="Pfon82NVZABm7Eqx-mhg-115">
          <mxGeometry width="50" height="50" relative="1" as="geometry">
            <mxPoint x="390" y="270" as="sourcePoint" />
            <mxPoint x="420" y="220" as="targetPoint" />
          </mxGeometry>
        </mxCell>
        <mxCell id="Pfon82NVZABm7Eqx-mhg-167" value="" style="endArrow=none;html=1;rounded=0;exitX=1;exitY=0;exitDx=0;exitDy=0;entryX=0.006;entryY=0.426;entryDx=0;entryDy=0;entryPerimeter=0;" edge="1" parent="1" target="Pfon82NVZABm7Eqx-mhg-133">
          <mxGeometry width="50" height="50" relative="1" as="geometry">
            <mxPoint x="580" y="189.83" as="sourcePoint" />
            <mxPoint x="710" y="189.83" as="targetPoint" />
            <Array as="points">
              <mxPoint x="680" y="190" />
              <mxPoint x="680" y="110" />
            </Array>
          </mxGeometry>
        </mxCell>
        <mxCell id="Pfon82NVZABm7Eqx-mhg-168" value="" style="endArrow=none;html=1;rounded=0;exitX=1.009;exitY=0.78;exitDx=0;exitDy=0;exitPerimeter=0;entryX=0;entryY=0.336;entryDx=0;entryDy=0;entryPerimeter=0;" edge="1" parent="1" source="Pfon82NVZABm7Eqx-mhg-121" target="Pfon82NVZABm7Eqx-mhg-147">
          <mxGeometry width="50" height="50" relative="1" as="geometry">
            <mxPoint x="650" y="270" as="sourcePoint" />
            <mxPoint x="780" y="270" as="targetPoint" />
            <Array as="points">
              <mxPoint x="680" y="285" />
              <mxPoint x="680" y="354" />
            </Array>
          </mxGeometry>
        </mxCell>
        <mxCell id="Pfon82NVZABm7Eqx-mhg-169" value="" style="endArrow=none;html=1;rounded=0;exitX=0.5;exitY=0;exitDx=0;exitDy=0;entryX=0.5;entryY=1;entryDx=0;entryDy=0;" edge="1" parent="1">
          <mxGeometry width="50" height="50" relative="1" as="geometry">
            <mxPoint x="810" y="300" as="sourcePoint" />
            <mxPoint x="810" y="200" as="targetPoint" />
          </mxGeometry>
        </mxCell>
        <mxCell id="Pfon82NVZABm7Eqx-mhg-173" value="1" style="text;html=1;whiteSpace=wrap;strokeColor=none;fillColor=none;align=center;verticalAlign=middle;rounded=0;" vertex="1" parent="1">
          <mxGeometry x="290" y="190" width="20" height="30" as="geometry" />
        </mxCell>
        <mxCell id="Pfon82NVZABm7Eqx-mhg-174" value="M" style="text;html=1;whiteSpace=wrap;strokeColor=none;fillColor=none;align=center;verticalAlign=middle;rounded=0;" vertex="1" parent="1">
          <mxGeometry x="400" y="190" width="20" height="30" as="geometry" />
        </mxCell>
        <mxCell id="Pfon82NVZABm7Eqx-mhg-175" value="1" style="text;html=1;whiteSpace=wrap;strokeColor=none;fillColor=none;align=center;verticalAlign=middle;rounded=0;" vertex="1" parent="1">
          <mxGeometry x="580" y="160" width="20" height="30" as="geometry" />
        </mxCell>
        <mxCell id="Pfon82NVZABm7Eqx-mhg-176" value="1" style="text;html=1;whiteSpace=wrap;strokeColor=none;fillColor=none;align=center;verticalAlign=middle;rounded=0;" vertex="1" parent="1">
          <mxGeometry x="580" y="250" width="20" height="30" as="geometry" />
        </mxCell>
        <mxCell id="Pfon82NVZABm7Eqx-mhg-177" value="M" style="text;html=1;whiteSpace=wrap;strokeColor=none;fillColor=none;align=center;verticalAlign=middle;rounded=0;" vertex="1" parent="1">
          <mxGeometry x="750" y="80" width="20" height="30" as="geometry" />
        </mxCell>
        <mxCell id="Pfon82NVZABm7Eqx-mhg-178" value="M" style="text;html=1;whiteSpace=wrap;strokeColor=none;fillColor=none;align=center;verticalAlign=middle;rounded=0;" vertex="1" parent="1">
          <mxGeometry x="750" y="330" width="20" height="30" as="geometry" />
        </mxCell>
        <mxCell id="Pfon82NVZABm7Eqx-mhg-179" value="1" style="text;html=1;whiteSpace=wrap;strokeColor=none;fillColor=none;align=center;verticalAlign=middle;rounded=0;" vertex="1" parent="1">
          <mxGeometry x="810" y="270" width="20" height="30" as="geometry" />
        </mxCell>
        <mxCell id="Pfon82NVZABm7Eqx-mhg-180" value="N" style="text;html=1;whiteSpace=wrap;strokeColor=none;fillColor=none;align=center;verticalAlign=middle;rounded=0;" vertex="1" parent="1">
          <mxGeometry x="810" y="200" width="20" height="30" as="geometry" />
        </mxCell>
        <mxCell id="Pfon82NVZABm7Eqx-mhg-181" value="owns" style="text;html=1;whiteSpace=wrap;strokeColor=none;fillColor=none;align=center;verticalAlign=middle;rounded=0;" vertex="1" parent="1">
          <mxGeometry x="320" y="190" width="60" height="30" as="geometry" />
        </mxCell>
        <mxCell id="Pfon82NVZABm7Eqx-mhg-182" value="has" style="text;html=1;whiteSpace=wrap;strokeColor=none;fillColor=none;align=center;verticalAlign=middle;rounded=0;" vertex="1" parent="1">
          <mxGeometry x="630" y="120" width="60" height="30" as="geometry" />
        </mxCell>
        <mxCell id="Pfon82NVZABm7Eqx-mhg-183" value="has" style="text;html=1;whiteSpace=wrap;strokeColor=none;fillColor=none;align=center;verticalAlign=middle;rounded=0;" vertex="1" parent="1">
          <mxGeometry x="630" y="300" width="60" height="30" as="geometry" />
        </mxCell>
        <mxCell id="Pfon82NVZABm7Eqx-mhg-184" value="connects from" style="text;html=1;whiteSpace=wrap;strokeColor=none;fillColor=none;align=center;verticalAlign=middle;rounded=0;" vertex="1" parent="1">
          <mxGeometry x="750" y="225" width="60" height="30" as="geometry" />
        </mxCell>
        <mxCell id="Pfon82NVZABm7Eqx-mhg-185" value="" style="endArrow=none;html=1;rounded=0;exitX=0.5;exitY=0;exitDx=0;exitDy=0;entryX=0.5;entryY=1;entryDx=0;entryDy=0;" edge="1" parent="1">
          <mxGeometry width="50" height="50" relative="1" as="geometry">
            <mxPoint x="890" y="300" as="sourcePoint" />
            <mxPoint x="890" y="200" as="targetPoint" />
          </mxGeometry>
        </mxCell>
        <mxCell id="Pfon82NVZABm7Eqx-mhg-186" value="N" style="text;html=1;whiteSpace=wrap;strokeColor=none;fillColor=none;align=center;verticalAlign=middle;rounded=0;" vertex="1" parent="1">
          <mxGeometry x="870" y="200" width="20" height="30" as="geometry" />
        </mxCell>
        <mxCell id="Pfon82NVZABm7Eqx-mhg-187" value="1" style="text;html=1;whiteSpace=wrap;strokeColor=none;fillColor=none;align=center;verticalAlign=middle;rounded=0;" vertex="1" parent="1">
          <mxGeometry x="870" y="270" width="20" height="30" as="geometry" />
        </mxCell>
        <mxCell id="Pfon82NVZABm7Eqx-mhg-188" value="connects to" style="text;html=1;whiteSpace=wrap;strokeColor=none;fillColor=none;align=center;verticalAlign=middle;rounded=0;" vertex="1" parent="1">
          <mxGeometry x="890" y="225" width="60" height="30" as="geometry" />
        </mxCell>
      </root>
    </mxGraphModel>
  </diagram>
</mxfile>
